<?xml version="1.0" encoding="utf-8"?>
<!-- Generator: Adobe Illustrator 28.2.0, SVG Export Plug-In . SVG Version: 6.00 Build 0)  -->
<svg version="1.1" id="Layer_1" xmlns="http://www.w3.org/2000/svg" xmlns:xlink="http://www.w3.org/1999/xlink" x="0px" y="0px"
	 viewBox="0 0 1080 232.8" style="enable-background:new 0 0 1080 232.8;" xml:space="preserve">
<style type="text/css">
	.st0{fill:#464555;}
	.st1{fill:#FFFFFF;}
	.st2{fill:#008067;}
	.st3{fill:#383E7E;}
</style>
<g>
	<g>
		<path class="st2" d="M705.6,155.2h248.5c12.2,0,22.1-9.9,22.1-22.1V99.8c0-12.2-9.9-22.1-22.1-22.1H705.6
			c-12.2,0-22.1,9.9-22.1,22.1v33.3C683.5,145.3,693.4,155.2,705.6,155.2z"/>
		<g>
			<path class="st1" d="M889.7,111.2v-5.6c0-5.6-4.6-10.2-10.2-10.2h-41.8v42.3h12.6v-11h24.6c1.2,0,2.2,1,2.2,2.2v8.8h12.6v-9.1
				c0-4-3.3-7.3-7.3-7.3h-2.9C885.1,121.4,889.7,116.8,889.7,111.2z M850.3,105.7h23.1c2,0,3.6,1.6,3.6,3.6v3.3c0,2-1.6,3.6-3.6,3.6
				h-23.1V105.7z"/>
			<polygon class="st1" points="831.3,137.7 817.7,137.7 799.5,104.9 781.2,137.7 767.7,137.7 791.3,95.4 807.7,95.4 			"/>
			<path class="st1" d="M761.7,110.5v-4.2c0-6-4.9-10.9-10.9-10.9H720c-6,0-10.9,4.9-10.9,10.9v20.5c0,6,4.9,10.9,10.9,10.9h29h1.7
				c6,0,10.9-4.9,10.9-10.9v-5.9H749v2.2c0,2-1.6,3.6-3.6,3.6h-18.6c-2.8,0-5.1-2.3-5.1-5.1v-10.8c0-2.8,2.3-5.1,5.1-5.1h18.6
				c2,0,3.6,1.6,3.6,3.6v1.1H761.7z"/>
			<path class="st1" d="M950.5,105.5v2.9h-12.6v-0.4c0-2-1.6-3.6-3.6-3.6h-19c-2,0-3.6,1.6-3.6,3.6v0c0,2,1.6,3.6,3.6,3.6h25
				c5.6,0,10.2,4.6,10.2,10.2v5.7c0,5.6-4.6,10.2-10.2,10.2h-31c-5.6,0-10.2-4.6-10.2-10.2V124h12.6v0.4c0,1.9,1.6,3.5,3.5,3.5h19.1
				c1.9,0,3.5-1.6,3.5-3.5v0c0-1.9-1.6-3.5-3.5-3.5h-25c-5.6,0-10.2-4.6-10.2-10.2v-5.2c0-5.6,4.6-10.2,10.2-10.2h31
				C945.9,95.4,950.5,99.9,950.5,105.5z"/>
		</g>
	</g>
	<polygon class="st3" points="254,77.6 254,155.2 216.4,155.2 202.3,137.6 201.2,136.2 193,126.1 181.4,111.6 175.5,104.2 
		171.1,98.7 171.1,155.2 147.4,155.2 147.4,77.6 185,77.6 199.3,95.4 200.3,96.6 206.4,104.2 212.3,111.6 223.9,126.1 230.4,134.1 
		230.4,77.6 	"/>
	<rect x="103.7" y="77.6" class="st3" width="23.6" height="77.6"/>
	<rect x="396.8" y="77.6" class="st3" width="23.6" height="77.6"/>
	<path class="st3" d="M540,99.4v4.8h-23.6v0c0-4.9-4-8.9-8.9-8.9h-35.8c-4.9,0-8.9,4-8.9,8.9v24.4c0,4.9,4,8.9,8.9,8.9h35.8
		c4.9,0,8.9-4,8.9-8.9v-2.6h-29.2v-14.5H540v21.8c0,12-9.8,21.8-21.8,21.8H461c-12,0-21.8-9.8-21.8-21.8v-34
		c0-12,9.8-21.8,21.8-21.8h57.2C530.2,77.6,540,87.4,540,99.4z"/>
	<path class="st3" d="M557.5,99.4v34c0,12,9.8,21.8,21.8,21.8h62.5c12,0,21.8-9.8,21.8-21.8v-34c0-12-9.8-21.8-21.8-21.8h-62.5
		C567.3,77.6,557.5,87.4,557.5,99.4z M629.1,136.2H592c-6,0-10.9-4.9-10.9-10.9v-17.9c0-6,4.9-10.9,10.9-10.9h37.1
		c6,0,10.9,4.9,10.9,10.9v17.9C640,131.3,635.1,136.2,629.1,136.2z"/>
	<g>
		<path class="st3" d="M293.5,132.9c0.6-0.1,1.1-0.3,1.7-0.4c5.7-1.3,9.8-1.4,16,0.1c0.3,0.1,0.3,0.5,0,0.5c-4.7,0.8-10.9,1-16,0.5
			c-0.6-0.1-1.1-0.1-1.7-0.2C293.2,133.4,293.2,132.9,293.5,132.9z"/>
		<path class="st3" d="M293.5,99.4c0.5-0.1,1.1-0.1,1.7-0.2c5-0.5,11.3-0.3,16,0.5c0.3,0.1,0.3,0.5,0,0.5c-6.2,1.5-10.3,1.3-16,0.1
			c-0.5-0.1-1.1-0.3-1.7-0.4C293.2,99.9,293.2,99.4,293.5,99.4z"/>
		<path class="st3" d="M312,128.4c1.7-8.2,1.6-16.3,0-24.2c-0.3-1.2,0.5-2.4,1.8-2.7l4.5-1c0.7-0.2,1.5,0.1,2.1,0.6
			c8.3,7.7,7.8,23.1,0.1,30.7c-0.6,0.6-1.4,0.8-2.2,0.6l-4.6-1.2C312.5,130.7,311.7,129.5,312,128.4z"/>
		<path class="st3" d="M347.9,108.1c0.1,0.3-0.2,0.5-0.4,0.3c-2.7-1.8-6-5.4-8.4-8.5c-0.2-0.2,0.1-0.5,0.3-0.4
			C343.5,101,346.2,104,347.9,108.1z"/>
		<path class="st3" d="M348.1,124.6c0.2-0.2,0.6,0.1,0.4,0.3c-1.7,3.9-4.4,6.9-8.4,8.3c-0.3,0.1-0.5-0.2-0.3-0.4
			C341.9,130.2,346.2,126.3,348.1,124.6z"/>
		<path class="st3" d="M377.9,99.4v34c0,12-9.8,21.8-21.8,21.8h-81.9v-19.3h21c8,0.1,15.6-0.3,23.1-0.6c0,0.1-0.1,0.2-0.2,0.3
			c-0.6,0.5-1.4,0.3-2,0.5c-0.2,0.1-0.3,0.1-0.4,0.2c-0.2,0.2-0.3,0.5-0.4,0.9c-0.2,1-0.6,4-0.3,4.8c0.2,0.5,0.7,0.6,1.4,0.4
			c1-0.3,1.5-0.9,2-1.7c0.9-1.5,1.1-3.2,1.1-5.5c4.4-0.1,8.7-0.2,13.1,0c27.1,1,23.2-40.2,0.3-38.1c-4,0.4-8.6,0.4-13.4,0.3
			c0-2.3-0.2-4.1-1.1-5.5c-0.5-0.8-1.1-1.4-2-1.7c-0.7-0.2-1.2-0.1-1.4,0.4c-0.3,0.8,0,3.8,0.3,4.8c0.1,0.4,0.2,0.8,0.4,0.9
			c0.1,0.1,0.2,0.2,0.4,0.2c0.7,0.3,1.4,0.1,2,0.5c0.2,0.1,0.2,0.3,0.3,0.4c-7.3-0.2-15.2-0.6-23.2-0.7h-21V77.6h81.9
			C368.2,77.6,377.9,87.4,377.9,99.4z"/>
	</g>
</g>
</svg>
